# AST/ASF file generated using VICON BodyLanguage
# -----------------------------------------------
:version 1.10
:name VICON
:units
  mass 1.0
  length 0.45
  angle deg
:documentation
   .ast/.asf automatically generated from VICON data using
   VICON BodyBuilder and BodyLanguage model FoxedUp or BRILLIANT.MOD
:root
   order TX TY TZ RX RY RZ
   axis XYZ
   position 0 0 0  
   orientation 0 0 0 
:bonedata
  begin
     id 1 
     name lhipjoint
     direction 0.623529 -0.717805 0.309788 
     length 2.23224 
     axis 0 0 0  XYZ
  end
  begin
     id 2 
     name lfemur
     direction 0.34202 -0.939693 0  
     length 7.11402  
     axis 0 0 20  XYZ
    dof rx ry rz
    limits (-160.0 20.0)
           (-70.0 70.0)
           (-60.0 70.0)
  end
  begin
     id 3 
     name ltibia
     direction 0.34202 -0.939693 0   
     length 6.78496   
     axis 0 0 20   XYZ
    dof rx
    limits (-10.0 170.0)
  end
  begin
     id 4 
     name lfoot
     direction 0.125078 -0.343648 0.930732   
     length 1.84054   
     axis -90 7.62852e-016 20   XYZ
    dof rx rz
    limits (-45.0 90.0)
           (-70.0 20.0)
  end
  begin
     id 5 
     name ltoes
     direction 1.53565e-011 -4.21893e-011 1   
     length 0.916474   
     axis -90 7.62852e-016 20   XYZ
    dof rx
    limits (-90.0 20.0)
  end
  begin
     id 6 
     name rhipjoint
     direction -0.564688 -0.757748 0.327026   
     length 2.11457  
     axis 0 0 0  XYZ 
  end
  begin
     id 7 
     name rfemur
     direction -0.34202 -0.939693 0   
     length 7.14609   
     axis 0 0 -20   XYZ
    dof rx ry rz
    limits (-160.0 20.0)
           (-70.0 70.0)
           (-70.0 60.0)
  end
  begin
     id 8 
     name rtibia
     direction -0.34202 -0.939693 0   
     length 6.78101   
     axis 0 0 -20   XYZ
    dof rx
    limits (-10.0 170.0)
 end
 begin
     id 9 
     name rfoot
     direction -0.0992671 -0.272734 0.956955   
     length 1.96168  
     axis -90 -7.62852e-016 -20   XYZ
    dof rx rz
    limits (-45.0 90.0)
           (-20.0 70.0)
  end
  begin
     id 10 
     name rtoes
     direction -1.5356e-011 -4.21891e-011 1   
     length 0.982933   
     axis -90 -7.62852e-016 -20   XYZ
    dof rx
    limits (-90.0 20.0)
  end
  begin
     id 11 
     name lowerback
     direction -0.00596953 0.998668 0.0512524   
     length 1.87557   
     axis 0 0 0   XYZ
    dof rx ry rz
    limits (-20.0 45.0)
           (-30.0 30.0)
           (-30.0 30.0)
  end
  begin
     id 12 
     name upperback
     direction 0.00584879 0.999652 0.0257308   
     length 1.87883   
     axis 0 0 0   XYZ
    dof rx ry rz
    limits (-20.0 45.0)
           (-30.0 30.0)
           (-30.0 30.0)
  end
  begin
     id 13 
     name thorax
     direction 0.010104 0.999947 0.00178881   
     length 1.87779   
     axis 0 0 0   XYZ
    dof rx ry rz
    limits (-20.0 45.0)
           (-30.0 30.0)
           (-30.0 30.0)
  end
  begin
     id 14 
     name lowerneck
     direction 0.0120771 0.995934 -0.0892773   
     length 1.40897   
     axis 0 0 0   XYZ
    dof rx ry rz
    limits (-20.0 45.0)
           (-30.0 30.0)
           (-30.0 30.0)
  end
  begin
     id 15 
     name upperneck
     direction -0.030568 0.999465 -0.0116366   
     length 1.38661   
     axis 0 0 0   XYZ
    dof rx ry rz
    limits (-20.0 45.0)
           (-30.0 30.0)
           (-30.0 30.0)
  end
  begin
     id 16
     name head
     direction -0.0170715 0.999854 -0.00104426  
     length 1.47052  
     axis 0 0 0   XYZ
    dof rx ry rz
    limits (-20.0 45.0)
           (-30.0 30.0)
           (-30.0 30.0)
  end
  begin
     id 17 
     name lclavicle
     direction 0.977763 0.206143 0.038532  
     length 3.02424  
     axis 0 0 0   XYZ
    dof ry rz
    limits (-20.0 10.0)
           (0.0 20.0)
  end
  begin
     id 18 
     name lhumerus
     direction 1 -4.48965e-011 -2.62654e-027   
     length 4.68382   
     axis 180 -30 -90   XYZ
    dof rx ry rz
    limits (-60.0 90.0)
           (-90.0 90.0)
           (-90.0 90.0)
  end
  begin
     id 19
     name lradius
     direction 1 -4.48973e-011 -1.54954e-027   
     length 2.98124   
     axis 180 -30 -90   XYZ
    dof rx
    limits (-10.0 170.0)
  end
  begin
     id 20
     name lwrist
     direction 1 -4.48959e-011 7.20928e-028   
     length 1.49062   
     axis -5.52449e-016 90 90   XYZ
    dof ry
    limits (-180.0 0.0)
 end
  begin
     id 21 
     name lhand
     direction 1 -4.48971e-011 1.44186e-027   
     length 0.707595   
     axis -9.20027e-016 90 90   XYZ
    dof rx rz
    limits (-90.0 90.0)
           (-45.0 45.0)
  end
  begin
     id 22 
     name lfingers
     direction 1 -4.48985e-011 2.88371e-027   
     length 0.570481   
     axis -1.84005e-015 90 90   XYZ
    dof rx
    limits (0.0 90.0)
  end
  begin
     id 23
     name lthumb
     direction 0.707107 -6.34929e-011 0.707107   
     length 0.819101   
     axis -90 45 2.85299e-015   XYZ
    dof rx rz
    limits (-45.0 45.0)
           (-45.0 45.0)
  end
  begin
     id 24 
     name rclavicle
     direction -0.958661 0.284411 -0.00895327   
     length 3.11921  
     axis 0 0 0   XYZ 
    dof ry rz
    limits (-10.0 20.0)
           (-20.0 0.0)
  end
  begin
     id 25 
     name rhumerus
     direction -1 -4.48963e-011 -4.22193e-027  
     length 4.75876   
     axis 180 30 90   XYZ
    dof rx ry rz
    limits (-90.0 60.0)
           (-90.0 90.0)
           (-90.0 90.0)
  end
  begin
     id 26 
     name rradius
     direction -1 -4.48968e-011 -1.07616e-027   
     length 2.93293   
     axis 180 30 90   XYZ
    dof rx
    limits (-10.0 170.0)
  end
  begin
     id 27 
     name rwrist
     direction -1 -4.48965e-011 7.20928e-028   
     length 1.46647   
     axis -5.52449e-016 -90 -90   XYZ
    dof ry
    limits (-180.0 0.0)
  end
  begin
     id 28
     name rhand
     direction -1 -4.48971e-011 1.44186e-027   
     length 0.831748   
     axis -9.20027e-016 -90 -90   XYZ
    dof rx rz
    limits (-90.0 90.0)
           (-45.0 45.0)
  end
  begin
     id 29
     name rfingers
     direction -1 -4.48961e-011 2.88371e-027   
     length 0.670577   
     axis -1.84005e-015 -90 -90   XYZ
    dof rx
    limits (0.0 90.0)
  end
  begin
     id 30
     name rthumb
     direction -0.707107 -6.34929e-011 0.707107   
     length 0.962818   
     axis -90 -45 -2.85299e-015   XYZ
    dof rx rz
    limits (-45.0 45.0)
           (-45.0 45.0)
  end
:hierarchy
  begin
    root lhipjoint rhipjoint lowerback
    lhipjoint lfemur
    lfemur ltibia
    ltibia lfoot
    lfoot ltoes
    rhipjoint rfemur
    rfemur rtibia
    rtibia rfoot
    rfoot rtoes
    lowerback upperback
    upperback thorax
    thorax lowerneck lclavicle rclavicle
    lowerneck upperneck
    upperneck head
    lclavicle lhumerus
    lhumerus lradius
    lradius lwrist
    lwrist lhand lthumb
    lhand lfingers
    rclavicle rhumerus
    rhumerus rradius
    rradius rwrist
    rwrist rhand rthumb
    rhand rfingers
  end

#!OML:ASF E:\id_vita\Project 1\Capture day 1\Session 1\Female.ASF
:FULLY-SPECIFIED
:DEGREES
360
root -21.3553 16.4294 2.8523 -168.802 7.19674 -178.339
lowerback -15.6952 0.263146 -2.56456
upperback -5.21832 1.39249 0.778778
thorax 3.18264 0.998253 2.53712
lowerneck 2.87138 1.41753 -0.708833
upperneck 12.7003 2.2286 7.25725
head 3.53795 1.76103 2.61303
rclavicle -4.10987e-014 -9.34288e-015
rhumerus 62.3845 -5.00115 -62.9966
rradius 124.777
rwrist -35.2145
rhand -10.7622 1.90075
rfingers 7.12502
rthumb 15.2495 -27.5172
lclavicle -4.10987e-014 -9.34288e-015
lhumerus -31.1854 -11.6939 99.1825
lradius 19.6619
lwrist -31.0803
lhand 28.7398 32.3025
lfingers 7.12502
lthumb 52.5705 52.0631
rfemur -12.5776 14.7588 16.7594
rtibia 19.1347
rfoot -4.06746 -27.7925
rtoes -8.99677
lfemur -21.1053 -11.0315 -15.8367
ltibia 28.0742
lfoot -23.1731 4.61177
ltoes -1.65249
361
root -21.3607 16.43 2.85035 -168.745 7.17616 -178.276
lowerback -15.756 0.271088 -2.46486
upperback -5.23291 1.39358 0.786298
thorax 3.20177 1.00031 2.49024
lowerneck 2.96641 1.39853 -0.646356
upperneck 12.639 2.21221 7.17509
head 3.50002 1.74899 2.56893
rclavicle 1.2101e-014 1.39149e-015
rhumerus 62.7305 -5.34144 -62.7615
rradius 125.013
rwrist -34.5402
rhand -10.0805 2.00466
rfingers 7.12502
rthumb 15.9062 -27.3621
lclavicle 1.2101e-014 1.39149e-015
lhumerus -31.229 -11.843 99.249
lradius 19.7155
lwrist -30.966
lhand 28.8012 32.3227
lfingers 7.12502
lthumb 52.626 52.049
rfemur -12.6309 14.8329 16.7882
rtibia 19.1436
rfoot -4.08569 -27.8534
rtoes -8.78987
lfemur -21.1642 -10.9654 -15.7822
ltibia 28.082
lfoot -23.2287 4.48538
ltoes -0.881474
362
root -21.3643 16.429 2.84646 -168.761 7.16166 -178.395
lowerback -15.7868 0.265774 -2.59819
upperback -5.22895 1.40988 0.745499
thorax 3.21943 1.00842 2.52668
lowerneck 2.96814 1.34987 -0.556186
upperneck 12.6536 2.15337 7.11687
head 3.50831 1.72327 2.53232
rclavicle -2.48481e-015 1.59028e-015
rhumerus 62.9236 -5.7447 -62.4583
rradius 125.243
rwrist -33.7748
rhand -9.25885 2.59446
rfingers 7.12502
rthumb 16.6973 -26.7074
lclavicle -2.48481e-015 1.59028e-015
lhumerus -31.2889 -12.1874 99.3749
lradius 19.764
lwrist -30.7031
lhand 28.8185 32.4026
lfingers 7.12502
lthumb 52.6417 52.1192
rfemur -12.6136 14.7408 16.6588
rtibia 19.1595
rfoot -4.13192 -27.8407
rtoes -8.99422
lfemur -21.1454 -10.8747 -15.9529
ltibia 28.0769
lfoot -23.4483 4.71938
ltoes -2.84882
363
root -21.3685 16.4271 2.842 -168.908 7.18268 -178.537
lowerback -15.7139 0.314232 -2.77821
upperback -5.17477 1.49148 0.67809
thorax 3.23013 1.04328 2.57107
lowerneck 2.71464 1.20927 -0.575967
upperneck 12.8518 1.95297 7.19495
head 3.63492 1.63914 2.57214
rclavicle 4.29872e-015 4.17448e-015
rhumerus 63.0229 -6.24939 -62.1349
rradius 125.658
rwrist -33.1791
rhand -8.56755 3.24969
rfingers 7.12502
rthumb 17.3627 -25.9948
lclavicle 4.29872e-015 4.17448e-015
lhumerus -31.2759 -12.3864 99.4493
lradius 19.7116
lwrist -30.7639
lhand 28.6299 32.325
lfingers 7.12502
lthumb 52.471 52.1466
rfemur -12.4564 14.5955 16.5349
rtibia 19.1772
rfoot -4.08504 -27.7303
rtoes -9.55512
lfemur -20.9784 -10.9132 -16.1629
ltibia 28.068
lfoot -23.6391 5.08446
ltoes -4.86736
364
root -21.3756 16.4264 2.83897 -168.975 7.23966 -178.545
lowerback -15.6691 0.362431 -2.77863
upperback -5.15556 1.54991 0.663927
thorax 3.22319 1.06991 2.56578
lowerneck 2.48963 1.08237 -0.560055
upperneck 13.0485 1.77715 7.17765
head 3.75563 1.56362 2.5719
rclavicle 1.16538e-014 5.36719e-015
rhumerus 63.2048 -6.68072 -61.8608
rradius 126.125
rwrist -32.5617
rhand -8.00054 3.52343
rfingers 7.12502
rthumb 17.9083 -25.672
lclavicle 1.16538e-014 5.36719e-015
lhumerus -31.2771 -12.3328 99.4736
lradius 19.6596
lwrist -31.0429
lhand 28.3619 32.2833
lfingers 7.12502
lthumb 52.2284 52.2524
rfemur -12.3979 14.4754 16.5043
rtibia 19.1926
rfoot -4.12907 -27.5542
rtoes -9.81272
lfemur -20.8878 -11.0421 -16.2022
ltibia 28.0632
lfoot -23.2033 4.60252
ltoes -1.73411
365
root -21.3807 16.4272 2.83631 -168.891 7.33877 -178.425
lowerback -15.7366 0.357914 -2.70602
upperback -5.18125 1.53673 0.756385
thorax 3.23202 1.06654 2.62125
lowerneck 2.41226 1.07173 -0.622317
upperneck 13.1622 1.76379 7.12252
head 3.81125 1.55629 2.5694
rclavicle 2.70844e-015 4.77083e-015
rhumerus 63.51 -6.9745 -61.6588
rradius 126.479
rwrist -32.1171
rhand -7.41531 3.93638
rfingers 7.12502
rthumb 18.4714 -25.2066
lclavicle 2.70844e-015 4.77083e-015
lhumerus -31.2632 -12.122 99.4734
lradius 19.6323
lwrist -31.2747
lhand 28.4187 32.2995
lfingers 7.12502
lthumb 52.2798 52.2375
rfemur -12.4893 14.4722 16.5701
rtibia 19.1835
rfoot -4.28612 -27.437
rtoes -9.91285
lfemur -20.9436 -11.0767 -16.0778
ltibia 28.0743
lfoot -23.7084 5.43031
ltoes -4.91266
366
root -21.3837 16.4272 2.83435 -168.874 7.42873 -178.38
lowerback -15.7493 0.29884 -2.77179
upperback -5.18261 1.46452 0.876137
thorax 3.23684 1.03199 2.77219
lowerneck 2.56383 1.22001 -0.76167
upperneck 13.0863 1.96595 7.13721
head 3.74523 1.64398 2.59743
rclavicle 2.00524e-014 5.96354e-016
rhumerus 63.8339 -7.17434 -61.4989
rradius 126.822
rwrist -31.8693
rhand -7.07925 4.37427
rfingers 7.12502
rthumb 18.7946 -24.7378
lclavicle 2.00524e-014 5.96354e-016
lhumerus -31.2028 -11.8066 99.4378
lradius 19.562
lwrist -31.4459
lhand 28.5535 32.1672
lfingers 7.12502
lthumb 52.4019 52.031
rfemur -12.4989 14.547 16.5918
rtibia 19.1606
rfoot -4.26597 -27.4294
rtoes -10.1737
lfemur -20.9448 -10.528 -16.1173
ltibia 28.0927
lfoot -23.283 4.21399
ltoes -0.966613
367
root -21.389 16.4253 2.83265 -168.921 7.49511 -178.463
lowerback -15.7056 0.282372 -2.86398
upperback -5.17468 1.45181 0.893419
thorax 3.21996 1.02501 2.83922
lowerneck 2.73002 1.32315 -1.03124
upperneck 12.9437 2.08983 7.39908
head 3.65528 1.69616 2.73034
rclavicle -1.02498e-014 -8.64713e-015
rhumerus 64.1129 -7.49515 -61.332
rradius 127.262
rwrist -31.2485
rhand -7.01726 4.37846
rfingers 7.12502
rthumb 18.8542 -24.7278
lclavicle -1.02498e-014 -8.64713e-015
lhumerus -31.1989 -11.5985 99.4306
lradius 19.5178
lwrist -31.5915
lhand 28.364 32.1176
lfingers 7.12502
lthumb 52.2302 52.0855
rfemur -12.459 14.5599 16.481
rtibia 19.1552
rfoot -4.18393 -27.4249
rtoes -10.4576
lfemur -20.8802 -10.4302 -16.2625
ltibia 28.0998
lfoot -23.4077 4.22154
ltoes -1.28112
368
root -21.396 16.4243 2.82908 -168.969 7.57946 -178.486
lowerback -15.6406 0.306295 -2.87557
upperback -5.17294 1.47978 0.912662
thorax 3.18432 1.0385 2.86909
lowerneck 2.54577 1.37297 -1.40468
upperneck 13.092 2.13256 7.64183
head 3.73819 1.71687 2.89346
rclavicle 3.43649e-014 -2.78299e-015
rhumerus 64.3801 -7.89188 -61.1387
rradius 127.642
rwrist -30.4323
rhand -6.83928 4.28083
rfingers 7.12502
rthumb 19.0254 -24.8087
lclavicle 3.43649e-014 -2.78299e-015
lhumerus -31.2848 -11.7136 99.5967
lradius 19.582
lwrist -31.4426
lhand 28.1675 32.2442
lfingers 7.12502
lthumb 52.0521 52.3189
rfemur -12.4305 14.4881 16.4175
rtibia 19.1739
rfoot -4.2747 -27.289
rtoes -10.2031
lfemur -20.7865 -10.7143 -16.3023
ltibia 28.0879
lfoot -23.3414 4.57169
ltoes -1.35333
369
root -21.4017 16.4254 2.82426 -168.927 7.72478 -178.437
lowerback -15.6463 0.278011 -2.88415
upperback -5.20144 1.44432 0.998093
thorax 3.15705 1.02432 2.95738
lowerneck 2.74324 1.52847 -1.06731
upperneck 13.0035 2.37598 7.25933
head 3.65975 1.83011 2.69473
rclavicle 2.01021e-014 9.93923e-015
rhumerus 64.6919 -8.06116 -61.0341
rradius 127.796
rwrist -29.7191
rhand -6.6255 4.48112
rfingers 7.12502
rthumb 19.231 -24.588
lclavicle 2.01021e-014 9.93923e-015
lhumerus -31.3895 -11.8525 99.7677
lradius 19.683
lwrist -31.0006
lhand 28.1239 32.4515
lfingers 7.12502
lthumb 52.0125 52.5497
rfemur -12.4997 14.4298 16.4103
rtibia 19.193
rfoot -4.46729 -27.0713
rtoes -9.65199
lfemur -20.7722 -10.8108 -16.2619
ltibia 28.0757
lfoot -23.2944 4.76695
ltoes -1.17154
370
root -21.4039 16.4261 2.82906 -168.913 7.67533 -178.446
lowerback -15.5077 0.182966 -2.94946
upperback -5.25639 1.32681 1.02686
thorax 3.03123 0.971509 2.99902
lowerneck 3.21458 1.77087 -0.818883
upperneck 12.695 2.73114 7.123
head 3.44792 1.99641 2.58517
rclavicle 2.64011e-014 3.18055e-015
rhumerus 64.9449 -8.2062 -61.0561
rradius 127.999
rwrist -29.0762
rhand -6.68094 4.65828
rfingers 7.12502
rthumb 19.1777 -24.4162
lclavicle 2.64011e-014 3.18055e-015
lhumerus -31.5068 -11.9485 99.7776
lradius 19.8154
lwrist -30.7476
lhand 28.4083 32.5711
lfingers 7.12502
lthumb 52.2704 52.5148
rfemur -12.522 14.4292 16.4055
rtibia 19.2061
rfoot -4.51853 -27.1178
rtoes -9.5224
lfemur -20.8258 -10.4296 -16.2985
ltibia 28.0715
lfoot -23.4591 4.42303
ltoes -1.5518
371
root -21.4092 16.4239 2.82733 -168.973 7.71128 -178.396
lowerback -15.4621 0.194035 -2.88613
upperback -5.22444 1.32369 1.03566
thorax 3.04194 0.966136 2.97107
lowerneck 3.30093 1.83786 -0.908523
upperneck 12.683 2.81705 7.29728
head 3.42154 2.04327 2.65967
rclavicle 3.10601e-016 -8.94531e-016
rhumerus 65.2123 -8.54528 -60.955
rradius 128.258
rwrist -28.6588
rhand -6.96236 4.63596
rfingers 7.12502
rthumb 18.907 -24.4651
lclavicle 3.10601e-016 -8.94531e-016
lhumerus -31.5555 -12.0927 99.7884
lradius 19.9103
lwrist -30.6717
lhand 28.6511 32.514
lfingers 7.12502
lthumb 52.4903 52.3239
rfemur -12.451 14.3821 16.4586
rtibia 19.2102
rfoot -4.50352 -27.0562
rtoes -9.83059
lfemur -20.7486 -10.5455 -16.2635
ltibia 28.0782
lfoot -23.5329 4.69053
ltoes -2.07943
372
root -21.4139 16.4233 2.82411 -169.015 7.79136 -178.314
lowerback -15.466 0.230475 -2.84073
upperback -5.18591 1.35762 1.08567
thorax 3.0818 0.979306 3.00474
lowerneck 3.14295 1.82303 -1.03336
upperneck 12.9176 2.79002 7.45041
head 3.53271 2.0451 2.74754
rclavicle 2.29845e-015 5.1684e-015
rhumerus 65.4794 -8.89603 -60.6977
rradius 128.37
rwrist -28.4884
rhand -7.12062 4.92504
rfingers 7.12502
rthumb 18.7548 -24.1908
lclavicle 2.29845e-015 5.1684e-015
lhumerus -31.5504 -12.0757 99.8299
lradius 19.8828
lwrist -30.684
lhand 28.5424 32.4298
lfingers 7.12502
lthumb 52.3918 52.2998
rfemur -12.3889 14.3463 16.5404
rtibia 19.1975
rfoot -4.41272 -26.9133
rtoes -10.31
lfemur -20.6723 -10.5175 -16.2148
ltibia 28.0941
lfoot -23.5122 4.6082
ltoes -1.46694
